<svg width="68" height="68" viewBox="0 0 68 68" fill="none" xmlns="http://www.w3.org/2000/svg">
<rect width="68" height="68" fill="black"/>
<path d="M39.4242 18.4714H47V51H26.1667V43.9286H39.4242V38.2714C38.0038 39.8271 36.1572 41.1 32.6061 41.1C26.1193 41.1 22 35.7729 22 29.55C22 23.3271 26.1193 18 32.6061 18C36.1572 18 38.0038 19.2729 39.4242 20.8286V18.4714ZM34.5 34.0286C38.1932 34.0286 39.4242 32.1429 39.4242 29.55C39.4242 26.9571 38.1932 25.0714 34.5 25.0714C30.8068 25.0714 29.5758 26.9571 29.5758 29.55C29.5758 32.1429 30.8068 34.0286 34.5 34.0286Z" fill="white"/>
</svg>
