<svg width="44" height="15" viewBox="0 0 44 15" fill="none" xmlns="http://www.w3.org/2000/svg">
<path d="M6.688 3.52H9.248V14.56H2.208V12.16H6.688V10.24C6.208 10.768 5.584 11.2 4.384 11.2C2.192 11.2 0.8 9.392 0.8 7.28C0.8 5.168 2.192 3.36 4.384 3.36C5.584 3.36 6.208 3.792 6.688 4.32V3.52ZM5.024 8.8C6.272 8.8 6.688 8.16 6.688 7.28C6.688 6.4 6.272 5.76 5.024 5.76C3.776 5.76 3.36 6.4 3.36 7.28C3.36 8.16 3.776 8.8 5.024 8.8ZM11.0106 0.799999H13.5706V12H11.0106V0.799999ZM21.223 3.52H23.783V14.56H16.423V12.16H21.223V10.4C20.743 10.928 19.959 11.2 18.999 11.2C16.407 11.2 15.335 9.872 15.335 7.52V3.52H17.895V7.36C17.895 8.32 18.471 8.8 19.559 8.8C20.647 8.8 21.223 8.32 21.223 7.36V3.52ZM30.4059 3.36C32.7579 3.36 33.9899 5.408 33.9899 7.76C33.9899 10.112 32.7579 12.16 30.4059 12.16C29.5259 12.16 28.7099 11.888 28.1019 10.96V14.56H25.5419V3.52H28.1019V4.56C28.7099 3.632 29.5259 3.36 30.4059 3.36ZM29.7659 9.76C30.8539 9.76 31.4299 9.12 31.4299 7.76C31.4299 6.4 30.8539 5.76 29.7659 5.76C28.6779 5.76 28.1019 6.4 28.1019 7.76C28.1019 9.12 28.6779 9.76 29.7659 9.76ZM35.2763 0.799999H37.8363V3.52H43.5963V12H41.0363V5.92H37.8363V12H35.2763V0.799999Z" fill="black"/>
</svg>
