<svg width="19" height="21" viewBox="0 0 19 21" fill="none" xmlns="http://www.w3.org/2000/svg">
<path d="M13.125 19.25V15.75C13.2467 14.6539 12.9324 13.5539 12.25 12.6875C14.875 12.6875 17.5 10.9375 17.5 7.875C17.57 6.78125 17.2638 5.705 16.625 4.8125C16.87 3.80625 16.87 2.75625 16.625 1.75C16.625 1.75 15.75 1.75 14 3.0625C11.69 2.625 9.31 2.625 7 3.0625C5.25 1.75 4.375 1.75 4.375 1.75C4.1125 2.75625 4.1125 3.80625 4.375 4.8125C3.73789 5.7014 3.42866 6.78369 3.5 7.875C3.5 10.9375 6.125 12.6875 8.75 12.6875C8.40875 13.1163 8.155 13.6062 8.00625 14.1312C7.8575 14.6562 7.81375 15.2075 7.875 15.75M7.875 15.75V19.25M7.875 15.75C3.92875 17.5 3.5 14 1.75 14" stroke="white" stroke-width="2" stroke-linecap="round" stroke-linejoin="round"/>
</svg>
